<?xml version="1.0" encoding="UTF-8"?>
<!-- Generator: Adobe Illustrator 26.5.0, SVG Export Plug-In . SVG Version: 6.00 Build 0)  -->
<svg version="1.1" id="&#x421;&#x43B;&#x43E;&#x439;_1"
	 xmlns="http://www.w3.org/2000/svg" xmlns:xlink="http://www.w3.org/1999/xlink" x="0px" y="0px" viewBox="0 0 64 64"
	 style="enable-background:new 0 0 64 64;" xml:space="preserve">
<path style="fill:#008AA9;" d="M55,47.491H44V18h8c1.657,0,3,1.343,3,3V47.491z"/>
<ellipse style="opacity:0.3;" cx="32" cy="61" rx="18.75" ry="3"/>
<path style="fill:#37D0EE;" d="M49.994,53H15c-3.314,0-6-2.686-6-6V14c0-1.657,1.343-3,3-3h29c1.657,0,3,1.343,3,3v33.505L49.994,53
	z"/>
<circle style="fill:#008AA9;" cx="49.5" cy="47.5" r="5.5"/>
<path style="opacity:0.15;" d="M50,28l0,19.491c0,0.069,0.001,0.14,0.004,0.21c0.073,1.858,1.173,3.437,2.737,4.236
	C54.108,50.936,55,49.324,55,47.5c0-0.003,0-0.006,0-0.009h0V23C52.239,23,50,25.239,50,28z"/>
<g>
	<path style="opacity:0.3;fill:#FFFFFF;" d="M30,11C30,11,30,11,30,11l-18,0c-1.657,0-3,1.343-3,3v17c2.761,0,5-2.239,5-5V16h11
		C27.761,16,30,13.761,30,11z"/>
</g>
<rect x="14" y="16" style="fill:#A0EFFE;" width="25" height="10"/>
<rect x="14" y="30" style="fill:#A0EFFE;" width="10" height="4"/>
<rect x="28" y="30" style="fill:#A0EFFE;" width="11" height="4"/>
<rect x="14" y="38" style="fill:#A0EFFE;" width="10" height="4"/>
<rect x="28" y="38" style="fill:#A0EFFE;" width="11" height="4"/>
<polyline style="fill:none;stroke:#FFFFFF;stroke-width:3;stroke-linecap:round;stroke-linejoin:round;stroke-miterlimit:10;" points="
	12.5,20.5 12.5,14.5 16.5,14.5 "/>
</svg>